<?xml version="1.0" encoding="UTF-8"?>
<svg width="17px" height="15px" viewBox="0 0 17 15" version="1.1" xmlns="http://www.w3.org/2000/svg" xmlns:xlink="http://www.w3.org/1999/xlink">
    <!-- Generator: sketchtool 51.2 (57519) - http://www.bohemiancoding.com/sketch -->
    <title>7687B4B4-9B81-488F-9826-9B4C31BCD3CE</title>
    <desc>Created with sketchtool.</desc>
    <defs></defs>
    <g id="Page-1" stroke="none" stroke-width="1" fill="none" fill-rule="evenodd">
        <g id="Assets" transform="translate(-658.000000, -196.000000)" fill="#2789F0" fill-rule="nonzero">
            <g id="Group" transform="translate(658.000000, 196.000000)">
                <path d="M15.0536842,2.54117647 L12.1578947,2.54117647 L12.1578947,1.58823529 C12.1578947,0.656470588 11.3621053,0 10.3894737,0 L6.41052632,0 C5.43789474,0 4.64210526,0.656470588 4.64210526,1.58823529 L4.64210526,2.54117647 L1.74631579,2.54117647 C0.773684211,2.54117647 0,3.30352941 0,4.23529412 L0,12.8117647 C0,13.7435294 0.773684211,14.4 1.74631579,14.4 L15.0536842,14.4 C16.0263158,14.4 16.8,13.7435294 16.8,12.8117647 L16.8,4.23529412 C16.8,3.30352941 16.0263158,2.54117647 15.0536842,2.54117647 Z M6.4,1.05714286 C6.4,0.868571429 6.57181818,0.8 6.78181818,0.8 L10.2181818,0.8 C10.4281818,0.8 10.6,0.868571429 10.6,1.05714286 L10.6,1.82857143 L6.4,1.82857143 L6.4,1.05714286 Z" id="Shape-Copy-3"></path>
            </g>
        </g>
    </g>
</svg>