<?xml version="1.0" encoding="UTF-8"?>
<svg width="33px" height="33px" viewBox="0 0 33 33" version="1.1" xmlns="http://www.w3.org/2000/svg" xmlns:xlink="http://www.w3.org/1999/xlink">
    <!-- Generator: sketchtool 51.2 (57519) - http://www.bohemiancoding.com/sketch -->
    <title>DF634C20-896E-4C95-9F2A-02019A05146F</title>
    <desc>Created with sketchtool.</desc>
    <defs></defs>
    <g id="Page-1" stroke="none" stroke-width="1" fill="none" fill-rule="evenodd">
        <g id="Assets" transform="translate(-1348.000000, -73.000000)">
            <g id="Group-9" transform="translate(1348.000000, 73.000000)">
                <rect id="Contact-Background-Copy-15" fill="#2789F0" x="0" y="0" width="33" height="33" rx="4"></rect>
                <path d="M6.96741344,14.247191 C6.96741344,14.1235955 6.8604888,14 6.7107943,14 L5.25661914,14 C5.12830957,14 5,14.1029963 5,14.247191 L5,24.752809 C5,24.8764045 5.10692464,25 5.25661914,25 L6.7107943,25 C6.83910387,25 6.96741344,24.8970037 6.96741344,24.752809 L6.96741344,22.6928839 L24.0325866,22.6928839 L24.0325866,24.752809 C24.0325866,24.8764045 24.1395112,25 24.2892057,25 L25.7433809,25 C25.8716904,25 26,24.8970037 26,24.752809 L26,20.8183521 L6.98879837,20.8183521 L6.98879837,14.247191 L6.96741344,14.247191 Z" id="Shape" fill="#FFFFFF" fill-rule="nonzero"></path>
                <circle id="Oval" fill="#FFFFFF" fill-rule="nonzero" cx="10.5" cy="17.5" r="2.5"></circle>
                <path d="M23.9053156,16.1407181 L14.576412,14.0302957 C13.755814,13.848754 13,14.5068427 13,15.3691658 L13,19 L26,19 L26,18.8638437 C26,17.5476663 25.1362126,16.4130307 23.9053156,16.1407181 Z" id="Shape" fill="#FFFFFF" fill-rule="nonzero"></path>
                <path d="M10.2390529,14 L11.8621867,14 C11.9387497,14 12,13.9090909 12,13.7954545 L12,13.0681818 C12,12.9545455 11.9387497,12.8636364 11.8621867,12.8636364 L11.0965576,12.8636364 L11.9387497,10.5227273 C12.0306252,10.2727273 11.9081245,10 11.7243735,10 L10.2237403,10 C10.1471774,10 10.0859271,10.0909091 10.0859271,10.2045455 L10.0859271,10.9318182 C10.0859271,11.0454545 10.1471774,11.1363636 10.2237403,11.1363636 L10.8821814,11.1363636 L10.0399893,13.4772727 C9.93280122,13.7045455 10.0553019,14 10.2390529,14 Z" id="Shape" fill="#FFFFFF" fill-rule="nonzero"></path>
                <path d="M13.2390529,10 L14.8621867,10 C14.9387497,10 15,9.95454545 15,9.89772727 L15,9.53409091 C15,9.47727273 14.9387497,9.43181818 14.8621867,9.43181818 L14.0965576,9.43181818 L14.9387497,8.26136364 C15.0306252,8.13636364 14.9081245,8 14.7243735,8 L13.2237403,8 C13.1471774,8 13.0859271,8.04545455 13.0859271,8.10227273 L13.0859271,8.46590909 C13.0859271,8.52272727 13.1471774,8.56818182 13.2237403,8.56818182 L13.8821814,8.56818182 L13.0399893,9.73863636 C12.9328012,9.85227273 13.0553019,10 13.2390529,10 Z" id="Shape-Copy" fill="#FFFFFF" fill-rule="nonzero"></path>
            </g>
        </g>
    </g>
</svg>