<?xml version="1.0" encoding="UTF-8"?>
<svg width="16px" height="18px" viewBox="0 0 16 18" version="1.1" xmlns="http://www.w3.org/2000/svg" xmlns:xlink="http://www.w3.org/1999/xlink">
    <!-- Generator: sketchtool 51.2 (57519) - http://www.bohemiancoding.com/sketch -->
    <title>49387F78-2E5E-463E-8622-678EE79F2E7F</title>
    <desc>Created with sketchtool.</desc>
    <defs></defs>
    <g id="Page-1" stroke="none" stroke-width="1" fill="none" fill-rule="evenodd">
        <g id="Assets" transform="translate(-164.000000, -64.000000)" fill="#E96673" fill-rule="nonzero">
            <path d="M179.782558,78.1 C178.556539,77.25 177.863571,75.925 177.863571,74.5 L177.863571,71.5 C177.863571,68.975 176.051195,66.85 173.599156,66.2 L173.599156,65.5 C173.599156,64.675 172.879536,64 172,64 C171.120464,64 170.400844,64.675 170.400844,65.5 L170.400844,66.2 C167.948805,66.85 166.136429,68.975 166.136429,71.5 L166.136429,74.5 C166.136429,75.925 165.443461,77.25 164.217442,78.1 C164.030874,78.225 163.950916,78.45 164.030874,78.65 C164.110832,78.85 164.2974,79 164.537273,79 L169.388046,79 C169.361393,79.175 169.33474,79.325 169.33474,79.5 C169.33474,80.875 170.534107,82 172,82 C173.465893,82 174.66526,80.875 174.66526,79.5 C174.66526,79.325 174.638607,79.175 174.611954,79 L179.462727,79 C179.7026,79 179.889168,78.85 179.969126,78.65 C180.049084,78.45 179.969126,78.225 179.782558,78.1 Z" id="Shape"></path>
        </g>
    </g>
</svg>