<?xml version="1.0" encoding="UTF-8"?>
<svg width="55px" height="46px" viewBox="0 0 55 46" version="1.1" xmlns="http://www.w3.org/2000/svg" xmlns:xlink="http://www.w3.org/1999/xlink">
    <!-- Generator: sketchtool 51.2 (57519) - http://www.bohemiancoding.com/sketch -->
    <title>DF9E376E-55FC-4B31-8405-7DCB3FEE7717</title>
    <desc>Created with sketchtool.</desc>
    <defs></defs>
    <g id="Page-1" stroke="none" stroke-width="1" fill="none" fill-rule="evenodd">
        <g id="Landing-Page" transform="translate(-605.000000, -1618.000000)" fill="#2789F0" fill-rule="nonzero">
            <g id="Group-12" transform="translate(605.000000, 1616.000000)">
                <path d="M18.5307222,16.8739241 L18.5402963,16.8613671 C21.2338704,13.2358481 23.349537,11.4031392 27.2465926,9.31989873 C28.1265926,8.85589873 29.0222778,8.60172152 29.9114444,8.5638481 C30.2571296,8.54906329 30.5969074,8.56911392 30.9265,8.61913924 C27.2148148,6.82349367 15.6452593,2.32101266 12.8640926,14.3493671 C11.506,20.2227848 17.7529815,18.8050633 17.7529815,18.8050633 C17.7529815,18.8050633 17.833037,18.7313418 17.9813333,18.5978734 C18.0314444,17.9937215 18.1942037,17.4073924 18.5225741,16.8866835 L18.5307222,16.8739241 Z" id="Shape"></path>
                <path d="M10.5412593,45.4191392 C6.04103704,45.4191392 2.39311111,41.792 2.39311111,37.3176709 C2.39311111,32.8435443 6.04103704,29.2164051 10.5412593,29.2164051 C11.623537,29.2164051 12.6557037,29.4280506 13.6006852,29.8090127 L14.9088704,27.7798481 C13.5778704,27.1763038 12.0997963,26.8372658 10.541463,26.8372658 C4.71940741,26.8370633 0,31.5293165 0,37.3176709 C0,43.1060253 4.71940741,47.7982785 10.5412593,47.7982785 C15.9491852,47.7982785 20.4033704,43.7482532 21.0093889,38.5326582 L18.5979444,38.5326582 C18.0082222,42.4305823 14.6261296,45.4191392 10.5412593,45.4191392 Z" id="Shape"></path>
                <path d="M25.1079074,21.4922532 C25.3165,21.8683544 25.5104259,22.2436456 25.6966111,22.6310886 C25.8343148,22.9176709 25.9765,23.2322025 26.1197037,23.5686076 L32.5915741,23.5686076 L26.1327407,20.4413165 C25.7752407,20.7815696 25.4313889,21.1319494 25.1079074,21.4922532 Z" id="Shape"></path>
                <ellipse id="Oval" transform="translate(37.219595, 6.580359) rotate(-50.245780) translate(-37.219595, -6.580359) " cx="37.2195954" cy="6.58035907" rx="4.58234618" ry="4.55618309"></ellipse>
                <path d="M44.2642037,26.8370633 C43.0757963,26.8370633 41.9346481,27.0353418 40.8688704,27.3960506 L41.9057222,29.5621266 C42.6525,29.3381266 43.4438889,29.2162025 44.2642037,29.2162025 C48.7644259,29.2162025 52.4123519,32.8433418 52.4123519,37.3174684 C52.4123519,41.7917975 48.7644259,45.4189367 44.2642037,45.4189367 C39.7639815,45.4189367 36.1160556,41.7917975 36.1160556,37.3174684 C36.1160556,34.5253671 37.5368889,32.0635949 39.6987963,30.6065823 L38.6621481,28.4411139 C35.6958148,30.2954937 33.7229444,33.5763038 33.7229444,37.3174684 C33.7229444,43.1058228 38.4423519,47.7980759 44.2642037,47.7980759 C50.0856481,47.7980759 54.8050556,43.1058228 54.8050556,37.3174684 C54.8050556,31.5293165 50.0856481,26.8370633 44.2642037,26.8370633 Z" id="Shape"></path>
                <path d="M17.0005,29.0385823 L15.7037222,31.0503291 C17.228037,32.2930633 18.290963,34.0747342 18.5979444,36.102481 L21.0093889,36.102481 C20.6761296,33.235038 19.1797222,30.7216203 17.0005,29.0385823 Z" id="Shape"></path>
                <path d="M28.3732778,32.6029367 C28.1404444,33.6791899 28.635037,34.7408608 29.5266481,35.2878987 L34.5854259,27.9633418 L34.8372037,26.7985823 C34.8950556,26.5304304 34.9062593,26.2608608 34.8777407,25.9985823 L27.0017407,25.9985823 C27.0589815,26.1863291 27.115,26.3787342 27.1695926,26.5749873 L29.4392593,27.6739241 L28.3732778,32.6029367 Z" id="Shape"></path>
                <path d="M15.279,27.9562532 L13.9791667,29.9726582 L9.526,36.8804051 C9.36446296,37.1305316 9.35366667,37.4452658 9.49687037,37.7063291 C9.64048148,37.9667848 9.91262963,38.1275949 10.2118704,38.1275949 L18.6486667,38.1275949 L21.0476852,38.1275949 L21.8015926,38.1275949 C21.8064815,38.0921519 21.8087222,38.0569114 21.8152407,38.0216709 C21.8830741,37.6508354 21.9403148,37.2812152 21.991037,36.9124051 C22.0097778,36.7773165 22.0277037,36.6422278 22.044,36.5073418 L21.0474815,36.5073418 L18.6486667,36.5073418 L11.7013519,36.5073418 L15.3806481,30.8004051 L16.6733519,28.7955443 L18.7376852,25.593519 L20.6003519,25.593519 C20.5374074,25.4523544 20.4752778,25.3168608 20.4135556,25.1884557 C20.2351111,24.8162025 20.0648148,24.4992405 19.9126481,24.2361519 C19.8578519,24.1415696 19.8057037,24.0536709 19.7564074,23.9732658 C19.6547593,23.8075949 19.5659444,23.6725063 19.4946481,23.5684051 C19.4486111,23.5013671 19.4092963,23.4458734 19.3791481,23.4043544 C19.1265556,23.059038 18.7717037,22.4133671 18.4802037,21.6273418 C18.2997222,21.6174177 18.1167963,21.6107342 17.9289815,21.6107342 C15.829,21.6107342 14.1266481,22.2452658 14.1266481,23.0284557 C14.1266481,23.702481 15.3902222,24.2657215 17.0817778,24.409519 C17.2337407,24.4222785 17.3881481,24.4330127 17.5466296,24.4390886 L15.279,27.9562532 Z" id="Shape"></path>
                <path d="M45.1545926,20.1822785 C45.3134815,19.8873924 45.470537,19.5797468 45.6237222,19.2526582 C45.8139815,18.8469873 45.6375741,18.3651646 45.2297593,18.1762025 C44.8347778,17.9929114 44.3697222,18.1539241 44.1676481,18.5330633 C44.7394444,18.8751392 45.1250556,19.4873924 45.1545926,20.1822785 Z" id="Shape"></path>
                <path d="M44.2646111,38.128 C44.3819444,38.128 44.5013148,38.1026835 44.6143704,38.0492152 C45.0205556,37.8570127 45.1932963,37.3733671 44.9999815,36.969519 L41.5158333,29.6901266 L40.4840741,27.5343797 L39.4710556,25.4181266 C39.948537,25.2874937 40.5337778,25.062481 41.1754444,24.6762532 C42.0340556,24.1608101 42.9829074,23.3575696 43.9079259,22.1383291 C43.692,22.2272405 43.457537,22.2821266 43.210037,22.2926582 C43.149537,22.2954937 43.0878148,22.2954937 43.0260926,22.2922532 C42.5824259,22.2713924 42.1497593,22.2333165 41.7272778,22.1802532 C41.2320741,22.6758481 40.7578519,23.0327089 40.3310926,23.2899241 C39.2237593,23.9558481 38.4079259,23.9730633 38.3075,23.9740759 C38.3038333,23.9740759 38.3007778,23.9740759 38.2983333,23.9740759 C38.2920185,23.9736709 38.2855,23.9746835 38.2787778,23.974481 C38.2740926,23.974481 38.2696111,23.9734684 38.2649259,23.9734684 L33.4277778,23.9734684 L26.2877593,23.9734684 C26.4399259,24.3507848 26.5914815,24.7576709 26.7391667,25.1886582 C26.7847963,25.3217215 26.8300185,25.4555949 26.8746296,25.5937215 L34.7999259,25.5937215 L36.7163704,25.5937215 L34.3603333,29.004962 L29.8922963,35.4740253 L29.1785185,36.5075443 L27.9870556,36.5075443 C27.9740185,36.6424304 27.9577222,36.777519 27.9428519,36.9126076 C27.8978333,37.3168608 27.8458889,37.7219241 27.7845741,38.1277975 L29.6073148,38.1277975 C29.8766111,38.1277975 30.1261481,37.996962 30.2789259,37.7764051 L31.8830926,35.4539747 L33.4595556,33.171443 L38.1361852,26.4004051 L39.0127222,28.2316962 L40.0440741,30.3862278 L43.5282222,37.6654177 C43.6677593,37.9572658 43.9602778,38.128 44.2646111,38.128 Z" id="Shape"></path>
                <path d="M27.5332037,36.9126076 C27.5482778,36.7773165 27.5647778,36.6414177 27.5782222,36.5075443 C27.5916667,36.371443 27.6020556,36.2371646 27.6136667,36.102481 C27.7212222,34.8388861 27.7444444,33.6332152 27.6949444,32.4947848 C27.5939074,30.1549367 27.1997407,28.0941772 26.6821296,26.3388354 C26.6481111,26.2231899 26.612463,26.1113924 26.5774259,25.9983797 C26.5348519,25.8614684 26.4918704,25.7263797 26.4478704,25.593519 C26.4028519,25.4570127 26.3578333,25.3207089 26.3115926,25.1884557 C26.1618704,24.7607089 26.006037,24.3570633 25.8477593,23.9732658 C25.7909259,23.8355443 25.7336852,23.7002532 25.6762407,23.5684051 C25.5609444,23.3030886 25.4446296,23.0472911 25.3287222,22.8056709 C25.0844815,22.2973165 24.8422778,21.8440506 24.6116852,21.4406076 C24.9655185,21.0314937 25.3466481,20.6361519 25.7438704,20.252962 C27.3242037,18.7270886 29.1730185,17.4065823 30.737463,16.2997468 C29.5794074,15.0460759 28.9208333,14.0259241 28.765,13.7739747 C28.4767593,13.2947848 28.3960926,12.7501772 28.5291111,12.2252152 C28.6615185,11.7006582 28.9915185,11.2591392 29.4586111,10.9814684 C29.7486852,10.8085063 30.0792963,10.7100759 30.4145926,10.6958987 C31.1636111,10.6638987 31.8676111,11.0406076 32.2522037,11.6793924 L32.2742037,11.7144304 C32.3053704,11.7624304 32.342037,11.8185316 32.3913333,11.8904304 C32.4944074,12.0419241 32.6671481,12.2863797 32.9109815,12.595038 C33.1075556,12.8447595 33.3662593,13.1548354 33.6783333,13.4958987 C34.1340185,12.5523038 34.2061296,11.5289114 33.6858704,10.7299241 C33.2955741,10.1302278 32.6616481,9.60627848 31.8631296,9.28789873 C30.670037,8.8121519 29.1088519,8.79574684 27.4395,9.6761519 C23.6194444,11.718481 21.574463,13.4582278 18.8678519,17.1017722 C18.6572222,17.4357468 18.5231852,17.8017215 18.4465926,18.1836962 C18.2815926,19.0071899 18.3903704,19.9046076 18.612,20.7202025 C18.702037,21.0513418 18.8102037,21.3683038 18.9263148,21.6615696 C19.082963,22.057519 19.2530556,22.4091139 19.4105185,22.6912405 C19.5186852,22.8846582 19.6209444,23.0466835 19.7083333,23.1659747 C19.7945,23.2836456 19.8869815,23.4183291 19.9839444,23.5682025 C20.064,23.6921519 20.1473148,23.827443 20.2326667,23.9730633 C20.2624074,24.0238987 20.2925556,24.0755443 20.3229074,24.1292152 C20.4985,24.4388861 20.6818333,24.7925063 20.8647593,25.1882532 C20.9250556,25.318481 20.9851481,25.4541772 21.045037,25.5933165 C21.101463,25.724557 21.1578889,25.859038 21.2135,25.9981772 C21.8869444,27.6820253 22.4878704,29.9453165 22.6072407,32.7121013 C22.6528704,33.7642532 22.6243519,34.8949873 22.5002963,36.1018734 C22.4864444,36.2359494 22.4713704,36.3708354 22.4552778,36.5069367 C22.4391852,36.6408101 22.4210556,36.7763038 22.4025185,36.912 C22.349963,37.2988354 22.2898704,37.6913418 22.216537,38.0933671 C22.2142963,38.1047089 22.2138889,38.1158481 22.2120556,38.1271899 C22.189037,38.2632911 22.1784444,38.3983797 22.1774259,38.5320506 C22.1690741,39.7389367 23.0299259,40.8139747 24.2653889,41.0375696 C24.4568704,41.072 24.6469259,41.0841519 24.8333148,41.0762532 C25.9952407,41.0268354 27.0098889,40.1857215 27.2266296,38.9998987 C27.2555556,38.8425316 27.2793889,38.6877975 27.3056667,38.5318481 C27.3280741,38.396962 27.3531296,38.2606582 27.3739074,38.1269873 C27.4370556,37.7162532 27.4879815,37.3126076 27.5332037,36.9126076 Z" id="Shape"></path>
                <path d="M32.5901481,12.8455696 C32.3485556,12.5393418 32.1695,12.2882025 32.0546111,12.1188861 C31.9971667,12.035038 31.9558148,11.971038 31.9301481,11.9313418 C31.9173148,11.9114937 31.908963,11.8977215 31.9042778,11.8906329 L31.9026481,11.8877975 C31.4406481,11.1202025 30.4396481,10.8700759 29.6676111,11.3292152 C28.8955741,11.788557 28.6437963,12.7833924 29.106,13.5515949 L29.1055926,13.5511899 C29.1495926,13.6214684 29.7992037,14.6958987 31.0707222,16.064 C31.1611667,16.1614177 31.2562963,16.2610633 31.3532593,16.3611139 C31.7299074,16.7503797 32.1515741,17.1572658 32.6241667,17.5688101 C34.6683333,19.3492658 37.6758148,21.2121519 41.5818333,21.7496709 C41.7447963,21.7719494 41.9081667,21.7936203 42.0739815,21.8112405 C42.3923704,21.8450633 42.7146296,21.8726076 43.0444259,21.888 C43.0939259,21.8902278 43.1432222,21.8902278 43.1923148,21.888 C44.025463,21.8523544 44.7086852,21.1896709 44.7488148,20.345519 C44.7769259,19.7403544 44.4672963,19.1979747 43.9857407,18.8972152 C43.8716667,18.8259241 43.7480185,18.7692152 43.617037,18.7274937 C43.4838148,18.6851646 43.3436667,18.6576203 43.1972037,18.6507342 C39.5142407,18.4791899 36.7078148,16.8105316 34.7695741,15.1293165 C34.399037,14.8072911 34.0633333,14.4862785 33.7622593,14.1780253 C33.6616296,14.0749367 33.5652778,13.9736709 33.4725926,13.8742278 C33.1207963,13.4956962 32.8254259,13.1443038 32.5901481,12.8455696 Z" id="Shape"></path>
            </g>
        </g>
    </g>
</svg>