<?xml version="1.0" encoding="UTF-8"?>
<svg width="33px" height="32px" viewBox="0 0 33 32" version="1.1" xmlns="http://www.w3.org/2000/svg" xmlns:xlink="http://www.w3.org/1999/xlink">
    <!-- Generator: sketchtool 51.2 (57519) - http://www.bohemiancoding.com/sketch -->
    <title>7D87D4A7-ACFF-4776-9729-525EB5533C57</title>
    <desc>Created with sketchtool.</desc>
    <defs></defs>
    <g id="Page-1" stroke="none" stroke-width="1" fill="none" fill-rule="evenodd">
        <g id="Assets" transform="translate(-1301.000000, -74.000000)">
            <g id="Group-10" transform="translate(1301.000000, 74.000000)">
                <rect id="Contact-Background-Copy-17" fill="#2789F0" x="0" y="0" width="33" height="32" rx="4"></rect>
                <path d="M24.9833475,14.356 L20.0156136,13.74 L17.242925,10.836 C16.7345987,10.308 16.0183208,10 15.2558314,10 L10.3112033,10 C9.50250246,10 8.76311881,10.418 8.34721551,11.078 L6.72981379,13.74 L4.99688338,13.85 C4.39613417,13.894 3.95712513,14.378 4.00333661,14.95 L4.25749974,17.942 C4.30371121,18.47 4.76582599,18.888 5.32036372,18.888 L6.05974737,18.888 C6.1983818,20.076 7.26124579,21 8.55516716,21 C9.84908854,21 10.8888468,20.076 11.050587,18.888 L19.0220669,18.888 C19.1607013,20.076 20.2235653,21 21.5174867,21 C22.811408,21 23.8511663,20.076 24.0129065,18.888 L24.6598671,18.888 C25.2144049,18.888 25.6765197,18.492 25.7458369,17.964 L26,15.478 C25.9768943,14.928 25.560991,14.422 24.9833475,14.356 Z M8,19 C7.43859649,19 7,18.5438596 7,18 C7,17.4561404 7.45614035,17 8,17 C8.54385965,17 9,17.4561404 9,18 C9,18.5438596 8.56140351,19 8,19 Z M12.9745223,14 L9,14 L10.2993631,12.3396226 C10.477707,12.1320755 10.7834395,12 11.1146497,12 L13,12 L12.9745223,14 Z M13,14 L13.0248756,12 L14.9651741,12 C15.3383085,12 15.7114428,12.1308411 15.9850746,12.3364486 L18,14 L13,14 Z M22,19 C21.4385965,19 21,18.5438596 21,18 C21,17.4561404 21.4561404,17 22,17 C22.5614035,17 23,17.4561404 23,18 C23,18.5438596 22.5614035,19 22,19 Z" id="Local-Transport-Icon" fill="#FFFFFF" fill-rule="nonzero"></path>
            </g>
        </g>
    </g>
</svg>