<svg xmlns="http://www.w3.org/2000/svg" width="40" height="21" viewBox="0 0 40 21">
    <path fill="#fff" fill-rule="nonzero" d="M38.152 8.316L29.119 7.14l-5.041-5.544A4.898 4.898 0 0 0 20.465 0h-8.99c-1.47 0-2.815.798-3.571 2.058L4.964 7.14l-3.151.21a1.942 1.942 0 0 0-1.807 2.1l.462 5.712c.084 1.008.924 1.806 1.933 1.806h1.344C3.997 19.236 5.93 21 8.282 21c2.353 0 4.243-1.764 4.537-4.032h14.494C27.565 19.236 29.497 21 31.85 21c2.353 0 4.243-1.764 4.537-4.032h1.176a1.996 1.996 0 0 0 1.975-1.764L40 10.458c-.042-1.05-.798-2.016-1.848-2.142zM8.5 19C7.096 19 6 17.86 6 16.5S7.14 14 8.5 14s2.5 1.14 2.5 2.5S9.904 19 8.5 19zm6.455-12H8l2.274-3.32c.312-.416.847-.68 1.427-.68H15l-.045 4zM17 7l.04-4h3.104c.597 0 1.194.262 1.632.673L25 7h-8zm14.5 12c-1.404 0-2.5-1.14-2.5-2.5s1.14-2.5 2.5-2.5c1.404 0 2.5 1.14 2.5 2.5S32.904 19 31.5 19z"/>
</svg>
