<?xml version="1.0" encoding="UTF-8"?>
<svg width="21px" height="18px" viewBox="0 0 21 18" version="1.1" xmlns="http://www.w3.org/2000/svg" xmlns:xlink="http://www.w3.org/1999/xlink">
    <!-- Generator: sketchtool 51.2 (57519) - http://www.bohemiancoding.com/sketch -->
    <title>C795CEF8-5C86-4E32-963C-83458607E15B</title>
    <desc>Created with sketchtool.</desc>
    <defs></defs>
    <g id="Page-1" stroke="none" stroke-width="1" fill="none" fill-rule="evenodd">
        <g id="Assets" transform="translate(-101.000000, -65.000000)" fill="#24CBAE" fill-rule="nonzero">
            <g id="Group-2" transform="translate(100.000000, 65.000000)">
                <path d="M9.55308549,13.0005668 C8.53497342,12.9789551 7.60550476,13.5770512 7.20331052,14.5126038 C6.80111628,15.4481565 7.00658868,16.5341637 7.72276204,17.2581215 C8.43893539,17.9820792 9.52265806,18.1992798 10.4625041,17.807223 C11.4023501,17.4151661 12.0104593,16.4922176 11.9998553,15.4739315 C12.0069591,14.8204122 11.7523147,14.1912126 11.2926842,13.7265861 C10.8330536,13.2619596 10.2066435,13.0005282 9.55308549,13.0005668 Z" id="Shape"></path>
                <path d="M16.5796819,13.0012774 C15.5594992,12.9687543 14.6219998,13.5596967 14.211334,14.4941394 C13.8006682,15.4285822 13.999321,16.5188364 14.7131784,17.2483826 C15.4270358,17.9779288 16.5127149,18.2002329 17.4558639,17.8099759 C18.3990128,17.4197189 19.0101939,16.4952866 18.9998537,15.4746385 C19.0069457,14.8257045 18.7559392,14.2005359 18.3020607,13.7366824 C17.8481823,13.2728288 17.2286171,13.0082927 16.5796819,13.0012774 Z" id="Shape"></path>
                <path d="M21.2165359,2.94816241 L5.92520199,2.94816241 L5.25475564,0.617710219 C5.1644687,0.261726308 4.87174889,0.0112952521 4.53273651,0 L1,0 L1,1.68466423 L3.93964935,1.68466423 L7.0082307,12.4103599 C7.10057275,12.7607141 7.39550171,13.001566 7.73024984,12.9999923 L18.8957601,12.9999923 C19.2346102,12.9959044 19.5342733,12.7596249 19.6435656,12.4103599 L21.9643414,4.04319416 C22.0387888,3.78550826 21.9952163,3.50457766 21.84718,3.28780412 C21.6991437,3.07103058 21.4646063,2.94471736 21.2165359,2.94816241 Z" id="Shape"></path>
            </g>
        </g>
    </g>
</svg>