<?xml version="1.0" encoding="UTF-8"?>
<svg width="14px" height="14px" viewBox="0 0 14 14" version="1.1" xmlns="http://www.w3.org/2000/svg" xmlns:xlink="http://www.w3.org/1999/xlink">
    <!-- Generator: sketchtool 51.2 (57519) - http://www.bohemiancoding.com/sketch -->
    <title>BA2A7281-C043-42C0-817C-25AC89E16D80</title>
    <desc>Created with sketchtool.</desc>
    <defs></defs>
    <g id="Page-1" stroke="none" stroke-width="1" fill="none" fill-rule="evenodd">
        <g id="Assets" transform="translate(-449.000000, -196.000000)" fill="#2789F0">
            <g id="Group-22" transform="translate(449.000000, 196.000000)">
                <path d="M6.42374269,3.6 C6.74716483,3.6 7.0243838,3.85231663 7.0243838,4.14668602 L7.0243838,7.40577578 L8.82630713,9.04583385 C9.03422136,9.23507132 9.08042452,9.71867819 8.82630713,9.8448365 C8.59529132,10.0551004 8.20256444,10.0551004 7.97154863,9.82381012 L5.8,7.86835626 L5.8,4.14668602 C5.8,3.85231663 6.07721897,3.6 6.42374269,3.6 Z" id="Shape"></path>
                <path d="M7,0.4 C10.7517241,0.4 13.8,3.44827586 13.8,7.2 C13.8,10.9517241 10.7517241,14 7,14 C3.24827586,14 0.2,10.9517241 0.2,7.2 C0.2,3.44827586 3.24827586,0.4 7,0.4 Z M7,1.48714734 C10.1548589,1.48714734 12.7128527,4.04514107 12.7128527,7.2 C12.7128527,10.3548589 10.1548589,12.9128527 7,12.9128527 C3.84514107,12.9128527 1.28714734,10.3548589 1.28714734,7.2 C1.28714734,4.04514107 3.84514107,1.48714734 7,1.48714734 Z" id="Shape"></path>
            </g>
        </g>
    </g>
</svg>