<?xml version="1.0" encoding="UTF-8"?>
<svg width="33px" height="30px" viewBox="0 0 33 30" version="1.1" xmlns="http://www.w3.org/2000/svg" xmlns:xlink="http://www.w3.org/1999/xlink">
    <!-- Generator: sketchtool 51.2 (57519) - http://www.bohemiancoding.com/sketch -->
    <title>B76C1CF3-4F64-4D89-B6B4-94C2838FCDD9</title>
    <desc>Created with sketchtool.</desc>
    <defs></defs>
  
        <g id="filler" transform="translate(-292.000000, -720.000000)" fill="#FFFFFF" fill-rule="nonzero">
            <path d="M294.686208,737.239521 C294.410187,737.239521 294.158167,737.347305 294.014156,737.51497 L293.978153,737.550898 L292.298023,739.227545 C292.058005,739.467066 291.949996,739.826347 292.022002,740.137725 C292.094008,740.48503 292.298023,740.772455 292.622048,740.94012 L297.782447,743.359281 L300.314643,748.401198 C300.458654,748.676647 300.734676,748.928144 301.0467,748.964072 C301.154708,748.964072 301.226714,749 301.262716,749 C301.538738,749 301.790757,748.892216 301.970771,748.724551 L302.006774,748.688623 L303.590896,747.107784 C303.830915,746.868263 303.938923,746.508982 303.866918,746.197605 L303.194866,742.305389 L308.42727,737.083832 L313.623672,746.305389 C313.767683,746.616766 314.079707,746.832335 314.391731,746.904192 C314.463737,746.904192 314.535742,746.94012 314.571745,746.94012 C314.847767,746.94012 315.099786,746.832335 315.2798,746.664671 L315.315803,746.628743 L316.899925,745.047904 C317.139944,744.808383 317.247952,744.449102 317.211949,744.101796 L313.875691,731.694611 L319.180102,726.401198 C320.308189,725.107784 320.272186,723.107784 319.072093,721.91018 C318.472047,721.311377 317.703987,721 316.863922,721 C316.023858,721 315.207794,721.311377 314.655752,721.91018 L309.387344,727.203593 L296.870377,723.886228 C296.870377,723.886228 296.726366,723.886228 296.726366,723.886228 C296.450344,723.886228 296.198325,723.994012 296.018311,724.161677 L295.982308,724.197605 L294.398186,725.778443 C294.158167,726.017964 294.050159,726.341317 294.122164,726.652695 C294.19417,727 294.398186,727.323353 294.686208,727.45509 L303.962925,732.676647 L298.730521,737.898204 L294.902225,737.227545 L294.686208,737.227545 L294.686208,737.239521 Z" id="Flight-Icon" transform="translate(306.000000, 735.000000) rotate(-315.000000) translate(-306.000000, -735.000000) "></path>
        </g>
 
</svg>