<?xml version="1.0" encoding="UTF-8"?>
<svg width="33px" height="33px" viewBox="0 0 33 33" version="1.1" xmlns="http://www.w3.org/2000/svg" xmlns:xlink="http://www.w3.org/1999/xlink">
    <!-- Generator: sketchtool 51.2 (57519) - http://www.bohemiancoding.com/sketch -->
    <title>CCFFEBB0-5527-4EE8-9D30-EB774A317F94</title>
    <desc>Created with sketchtool.</desc>
    <defs></defs>
    <g id="Page-1" stroke="none" stroke-width="1" fill="none" fill-rule="evenodd">
        <g id="Assets" transform="translate(-1253.000000, -74.000000)">
            <g id="Group-13" transform="translate(1253.000000, 74.000000)">
                <rect id="Contact-Background-Copy-16" fill="#2789F0" x="0" y="0" width="33" height="33" rx="4"></rect>
                <path d="M9.63091194,18.8597092 C9.46332756,18.8597092 9.31031573,18.9251497 9.2228804,19.0269461 L9.20102157,19.0487596 L8.1809427,20.0667237 C8.03521715,20.2121471 7.96964065,20.4302823 8.01335832,20.6193328 C8.05707598,20.8301967 8.1809427,21.0047049 8.3776722,21.1065013 L11.5107716,22.575278 L13.0481761,25.6364414 C13.1356115,25.8036784 13.3031959,25.956373 13.4926391,25.9781865 C13.5582156,25.9781865 13.6019332,26 13.6237921,26 C13.7913765,26 13.9443883,25.9345595 14.0536824,25.832763 L14.0755413,25.8109495 L15.0373299,24.8511548 C15.1830555,24.7057314 15.248632,24.4875962 15.2049143,24.2985458 L14.7968828,21.9354149 L17.9736998,18.7651839 L21.128658,24.3639863 C21.2160933,24.5530368 21.4055365,24.6839179 21.5949798,24.7275449 C21.6386974,24.7275449 21.6824151,24.7493584 21.7042739,24.7493584 C21.8718583,24.7493584 22.0248701,24.6839179 22.1341643,24.5821215 L22.1560231,24.560308 L23.1178118,23.6005133 C23.2635373,23.4550898 23.3291138,23.2369547 23.307255,23.0260907 L21.2816698,15.4931565 L24.5022045,12.2792985 C25.1871146,11.494012 25.1652558,10.2797263 24.436628,9.55260907 C24.0723141,9.18905047 23.6059924,9 23.0959529,9 C22.5859135,9 22.0904466,9.18905047 21.7552779,9.55260907 L18.556602,12.7664671 L10.9570145,10.7523524 C10.9570145,10.7523524 10.8695791,10.7523524 10.8695791,10.7523524 C10.7019948,10.7523524 10.5489829,10.817793 10.4396888,10.9195894 L10.4178299,10.9414029 L9.45604128,11.9011976 C9.31031573,12.046621 9.24473923,12.2429427 9.2884569,12.4319932 C9.33217456,12.6428571 9.45604128,12.8391788 9.63091194,12.9191617 L15.2632045,16.0893926 L12.0863875,19.2596236 L9.76206494,18.852438 L9.63091194,18.852438 L9.63091194,18.8597092 Z" id="Flight-Icon" fill="#FFFFFF" fill-rule="nonzero"></path>
            </g>
        </g>
    </g>
</svg>