<svg xmlns="http://www.w3.org/2000/svg" width="31" height="33" viewBox="0 0 31 33">
    <g fill="#2789F0" fill-rule="nonzero">
        <path d="M20.704 20L18 22.704l8.74 8.74c.741.741 1.964.741 2.704 0 .741-.74.741-1.963 0-2.703L20.704 20zM5.295.233l5.26 5.635.108.116c.834.972 1.125 2.332.834 3.537L14 12.202 11.389 15l-2.503-2.681c-1.124.31-2.394 0-3.3-.894l-.11-.117L.219 5.674c-.29-.311-.29-.778 0-1.05.29-.31.725-.31.979 0l5.259 5.635.036.039c.29.31.726.389 1.016.078a.89.89 0 0 0 0-1.166l-5.26-5.751c-.29-.311-.29-.778 0-1.05.29-.31.726-.31.98 0l5.295 5.674c.29.31.762.35 1.088 0 .29-.311.254-.816-.036-1.127l-.036-.039-5.223-5.635a.776.776 0 0 1 0-1.049c.254-.31.69-.31.98 0zM30.901 5.336c-.11-.275-.255-.55-.438-.745-.292-.313-.693-.549-1.131-.588-.803-.078-2.957 1.293-4.198 2.116a40.93 40.93 0 0 0-7.008 5.995l-5.73 6.152c-.73.784-.73 2.077 0 2.861l.036.04-7.884 8.385c-.73.783-.73 2.077 0 2.86.73.784 1.934.784 2.664 0l23.251-24.96c.511-.55.657-1.372.438-2.116z"/>
    </g>
</svg>
