<?xml version="1.0" encoding="UTF-8"?>
<svg width="39px" height="35px" viewBox="0 0 39 35" version="1.1" xmlns="http://www.w3.org/2000/svg" xmlns:xlink="http://www.w3.org/1999/xlink">
    <!-- Generator: sketchtool 51.2 (57519) - http://www.bohemiancoding.com/sketch -->
    <title>46962493-A0AF-4B7A-A1C3-95BC35BCD07E</title>
    <desc>Created with sketchtool.</desc>
    <defs></defs>
    <g id="Page-1" stroke="none" stroke-width="1" fill="none" fill-rule="evenodd">
        <g id="Assets" transform="translate(-1060.000000, -72.000000)" fill="#2789F0" fill-rule="nonzero">
            <g id="Group-12" transform="translate(1060.000000, 72.000000)">
                <path d="M22.4230714,13.7840712 C22.3577369,13.9622509 22.3111774,14.146639 22.2841349,14.3342966 C22.2627002,14.5364754 22.1962701,14.7314372 22.0896239,14.9051555 C21.9517919,15.1066583 21.9749554,15.3761261 22.1451985,15.5516703 L22.1764592,15.6479598 C22.2266095,15.8065116 22.3527344,15.9302338 22.5133341,15.9784169 C22.6739339,16.0266001 22.8482093,15.9930041 22.9788171,15.8886834 L23.0170247,15.8508554 C23.2522254,15.54428 23.6117092,15.3556336 24,15.3350191 C23.5587903,14.5875635 23.1778481,13.8068 22.8607212,13 C22.6740634,13.2369209 22.5263614,13.5015363 22.4230714,13.7840712 Z" id="Shape"></path>
                <path d="M27.3409163,32.1781896 C31.2569752,29.67366 34.0106344,25.7386908 35,21.2333862 C33.1724898,22.521527 30.6726351,22.32487 29.0742879,20.767226 C28.2258933,19.9438809 27.4251226,19.0739294 26.6757853,18.1615102 C26.4379506,18.1973686 26.204147,18.261117 25.9703434,18.3049441 L25.8574727,18.4762679 C25.534985,18.1216674 25.2205594,17.7551141 24.8819473,17.4084822 C24.3982157,16.9184163 23.9709194,16.9024792 23.5073433,17.4084822 C23.2744659,17.6737178 22.925628,17.8104434 22.5721289,17.7750355 C22.2617344,17.7750355 21.8183138,17.6993342 21.661101,17.8666738 C21.116903,18.4404094 20.1937818,18.7631357 20.2381239,19.7831101 C20.2381239,19.9066226 20.07688,20.0699779 19.951916,20.1815376 C19.6364811,20.4212681 19.4812948,20.8139304 19.5488064,21.201512 C19.5768338,21.4956976 19.5768338,21.7918354 19.5488064,22.086021 C19.4937691,22.4926376 19.6535547,22.8987424 19.9720715,23.1617753 C20.1096201,23.3444335 20.2033538,23.5556094 20.2461861,23.7793379 C20.2945592,23.9148033 20.2663416,24.0821428 20.3389013,24.1777654 C20.6022187,24.5591105 21.0199137,24.8088509 21.4838836,24.862352 C21.9478535,24.9158531 22.4124965,24.7678564 22.7575593,24.4566647 C23.1047265,24.0706706 23.667794,23.9570936 24.1402255,24.1777654 C24.6431329,24.3375359 24.9563816,24.8322392 24.8819473,25.3491423 C24.8288057,25.7151489 24.8288057,26.0867798 24.8819473,26.4527864 C24.9244104,26.7425466 25.0409553,27.0168114 25.2205594,27.2496414 C25.6236691,27.7158016 25.6236691,28.6839804 25.3898655,29.2417789 C25.36971,29.2935745 25.3495545,29.3493544 25.3334301,29.4051342 C21.4905797,31.7968747 16.7235247,32.2320728 12.5024493,30.5765111 L12.5951645,30.3533917 C12.6261502,30.3019949 12.6672764,30.2572816 12.7160974,30.2219106 C13.655343,29.3413858 14.5945885,28.4568768 15.5378651,27.5843205 C15.6305804,27.4966665 15.8039175,27.504635 15.9127571,27.4249495 C16.3158668,27.1261289 16.7754118,26.8631668 16.7673496,26.229667 C16.793481,25.9634936 16.9018498,25.7117154 17.0777441,25.5085133 C17.3841074,25.1100858 17.6058177,23.9148033 17.3115477,23.5522342 C17.0938685,23.2693507 16.7270387,22.8988131 16.4367997,22.9027974 C15.9528606,22.8933903 15.4968938,22.6767776 15.1871597,22.3091404 C14.699397,21.8549331 14.2116343,21.4086943 13.7037161,20.9744083 C13.5685415,20.8347009 13.3865936,20.7483237 13.1917669,20.7313675 C12.7671837,20.8161362 12.3324242,20.6420567 12.0872464,20.289113 C11.405991,19.4404624 10.5473674,19.2093745 9.4750957,19.3408556 C8.40282398,19.4723366 7.91506128,19.854827 8.0077765,20.9744083 C8.09127038,21.4519867 7.91715352,21.9380781 7.54823148,22.2573449 C7.42548165,22.3817979 7.34393775,22.5402122 7.31442787,22.7115522 C7.06046878,23.9745674 8.20530024,24.7036897 8.52375688,25.7635069 C8.52375688,25.8312395 8.63662759,25.8710823 8.69709404,25.9268621 C8.93492874,26.142013 9.16067016,26.3810695 9.41462925,26.5723147 C9.70830674,26.7869567 9.87456552,27.1320448 9.85804989,27.4926822 C9.85804989,28.0943077 9.90239195,28.6879647 9.92657853,29.2975588 C7.13894708,27.5053812 5.07718939,24.8019335 4.1016438,21.6597036 C4.25755399,21.8155708 4.45930632,21.9187615 4.67809063,21.95454 C4.99654727,21.95454 5.1981021,21.8947758 5.15779114,21.5083012 C5.11748017,21.1218265 5.15779114,20.7114462 5.08926249,20.3130187 C5.01021761,19.9500957 5.14991691,19.5746513 5.4480301,19.3488241 C5.80276661,19.0778934 6.15750312,18.7989942 6.53239511,18.5519691 C6.77095218,18.3773032 7.04669223,18.2587495 7.33861445,18.2053372 C8.18111366,18.1216674 8.54794346,17.7750355 8.6245343,16.9343534 C8.65432374,16.7516578 8.73217131,16.5799092 8.85027571,16.4363191 C9.25338538,15.8665677 9.73308589,15.3207221 10.1482889,14.7469865 C10.8908913,13.7397552 11.8112915,12.8732366 12.865248,12.1890819 C13.8165868,11.5715193 14.3486916,10.6591203 15.1307244,10.017652 C14.7002461,9.93340371 14.2846329,9.78707807 13.8972088,9.58336607 C13.6000843,9.31522219 13.2007744,9.18608324 12.8007505,9.22876559 C12.4581073,9.27259262 12.0953086,9.22876559 11.7607275,9.29251399 C11.4670602,9.38698247 11.1845861,9.5125526 10.9182283,9.66703584 C10.6344686,9.82968807 10.3346035,9.96319354 10.0233249,10.0654633 C9.68874383,10.1451488 9.32191403,10.0654633 8.9833019,10.133196 C8.31817095,10.2567085 7.94731005,9.89812379 7.57241806,9.40407369 L9.86611208,6.93780747 C10.5957406,6.14095247 11.2447472,6.11704682 12.0227488,6.84616914 C12.2008449,7.0518652 12.3575061,7.27478365 12.490356,7.51154307 L12.6435377,7.30037649 L13.3046376,6.90194899 C13.3149846,6.43759278 13.0736756,6.00311665 12.6717554,5.76244634 C12.5478008,5.69057728 12.4108905,5.64321526 12.2686457,5.62299672 C11.9402691,5.56572773 11.6313979,5.42882922 11.3697112,5.22456922 C11.2756251,5.15103386 11.1743453,5.08696766 11.0673789,5.03332402 C11.8409326,4.6307067 12.6506245,4.29992129 13.4860369,4.04522382 C14.0748642,4.05112282 14.6256898,4.33369264 14.9694805,4.80622034 C15.0218848,4.87793729 15.1871597,4.87395302 15.3040615,4.88590584 C16.408582,4.96160707 16.9165002,5.45565717 16.9568112,6.55531707 C17.0002024,7.00554022 17.0190415,7.45774563 17.0132465,7.90997057 C16.9729356,8.61917152 17.492947,8.93392924 17.9726475,9.19689139 C18.1267208,9.31862924 18.3336368,9.35270859 18.5193244,9.28692983 C18.7050121,9.22115108 18.8429181,9.06492053 18.8836754,8.87416512 C19.0126705,8.49964327 19.4238424,7.94582904 19.6898947,7.94582904 C20.7017,7.94582904 21.4353596,7.50357452 22.1528948,6.92187037 C22.2476459,4.86064299 22.9823555,2.87826641 24.2571273,1.24427849 C16.4657684,-1.82354853 7.5655941,0.932775764 2.93853629,7.84650315 C-1.68852152,14.7602305 -0.772776564,23.934202 5.13202054,29.8209205 C11.0368176,35.707639 20.310363,36.6917615 27.3449474,32.1781896 L27.3409163,32.1781896 Z" id="Shape"></path>
                <path d="M32.0000632,0 C31.8506263,0 31.6998786,0 31.5478201,0 C27.8417422,0.259345005 24.9780855,3.2651198 25.0001264,6.87264396 C25.047317,11.4238615 28.9326751,15.7116277 30.8989495,17.5634235 C31.510608,18.1455255 32.4895184,18.1455255 33.1011768,17.5634235 C35.0674512,15.7001733 39,11.3780439 39,6.79628125 C39,3.04279876 35.8660215,1.01735568e-15 32.0000632,0 Z M32,9 C30.3431458,9 29,7.88071187 29,6.5 C29,5.11928813 30.3431458,4 32,4 C33.6568542,4 35,5.11928813 35,6.5 C35,7.88071187 33.6568542,9 32,9 Z" id="Shape"></path>
            </g>
        </g>
    </g>
</svg>