<svg xmlns="http://www.w3.org/2000/svg" width="37" height="37" viewBox="0 0 37 37">
    <g fill="none" fill-rule="evenodd">
        <rect width="36.397" height="36.335" x=".2" fill="#05C5A4" rx="4.8"/>
        <path fill="#FFF" fill-rule="nonzero" d="M16.139 11l-1.18 2.5h-3.306c-.916 0-1.653.78-1.653 1.75v9c0 .97.737 1.75 1.653 1.75h13.694c.916 0 1.653-.78 1.653-1.75v-9c0-.97-.737-1.75-1.653-1.75h-3.305l-1.18-2.5h-4.723zm2.361 4.5c2.208 0 4.014 1.912 4.014 4.25S20.708 24 18.5 24s-4.014-1.912-4.014-4.25 1.806-4.25 4.014-4.25zm0 1.5c-1.443 0-2.597 1.222-2.597 2.75s1.154 2.75 2.597 2.75 2.597-1.222 2.597-2.75S19.943 17 18.5 17z"/>
    </g>
</svg>
