<?xml version="1.0" encoding="UTF-8"?>
<svg width="16px" height="15px" viewBox="0 0 16 15" version="1.1" xmlns="http://www.w3.org/2000/svg" xmlns:xlink="http://www.w3.org/1999/xlink">
    <!-- Generator: sketchtool 51.2 (57519) - http://www.bohemiancoding.com/sketch -->
    <title>072050D9-330B-4F75-8F91-0A89F17A405B</title>
    <desc>Created with sketchtool.</desc>
    <defs></defs>
    <g id="Page-1" stroke="none" stroke-width="1" fill="none" fill-rule="evenodd">
        <g id="Assets" transform="translate(-542.000000, -196.000000)" fill="#2789F0" fill-rule="nonzero">
            <g id="Group-17" transform="translate(542.000000, 196.000000)">
                <path d="M6.32727273,0.4 L2.37922078,0.4 C1.50704123,0.4 0.8,1.07864206 0.8,1.91578947 L0.8,14.8 L5.53766234,10.2526316 L9.09090909,10.2526316 L6.32727273,0.4 Z M5.56924675,6.65263158 L3.92883117,6.65263158 L3.56363636,7.78947368 L2.77402597,7.78947368 L4.35324675,2.86315789 L5.14285714,2.86315789 L6.72207792,7.78947368 L5.93246753,7.78947368 L5.56924675,6.65263158 Z" id="Shape"></path>
                <path d="M14.5030303,0.4 L7.01818182,0.4 L9.63787879,10 L14.5030303,10 C15.3297838,10 16,9.33875902 16,8.52307692 L16,1.87692308 C16,1.06124098 15.3297838,0.4 14.5030303,0.4 Z M11.8833333,2.8 L12.6318182,2.8 L12.6318182,3.53846154 L11.8833333,3.53846154 L11.8833333,2.8 Z M14.1287879,7.6 C13.4452915,7.60593612 12.7677749,7.47400647 12.1378182,7.21230769 C11.5904383,7.46829533 10.9921233,7.60073502 10.3863636,7.6 L10.3863636,6.86153846 C10.7028544,6.86228869 11.0178557,6.81877909 11.3219697,6.73230769 C10.7437652,6.27815385 10.3863636,5.68184615 10.3863636,5.01538462 L11.1348485,5.01538462 C11.1348485,5.54707692 11.5240606,6.03261538 12.1303333,6.37415385 C12.8869667,5.93578711 13.359843,5.14238342 13.380303,4.27692308 L10.3863636,4.27692308 L10.3863636,3.53846154 L14.1287879,3.53846154 L14.1287879,4.27692308 C14.1171149,5.21972098 13.6801544,6.10833338 12.9368258,6.70092308 C13.3247346,6.80845302 13.7258598,6.86250414 14.1287879,6.86153846 L14.1287879,7.6 Z" id="Shape"></path>
            </g>
        </g>
    </g>
</svg>