<?xml version="1.0" encoding="UTF-8"?>
<svg width="22px" height="11px" viewBox="0 0 22 11" version="1.1" xmlns="http://www.w3.org/2000/svg" xmlns:xlink="http://www.w3.org/1999/xlink">
    <!-- Generator: sketchtool 51.2 (57519) - http://www.bohemiancoding.com/sketch -->
    <title>09AA42F8-09F7-4B14-91D5-2D5C95A7F0B1</title>
    <desc>Created with sketchtool.</desc>
    <defs></defs>
    <g id="Page-1" stroke="none" stroke-width="1" fill="none" fill-rule="evenodd">
        <g id="Landing-Page" transform="translate(-1048.000000, -683.000000)" fill="#FFFFFF" fill-rule="nonzero">
            <g id="Group-9" transform="translate(268.000000, 672.000000)">
                <path d="M800.983347,15.356 L796.015614,14.74 L793.242925,11.836 C792.734599,11.308 792.018321,11 791.255831,11 L786.311203,11 C785.502502,11 784.763119,11.418 784.347216,12.078 L782.729814,14.74 L780.996883,14.85 C780.396134,14.894 779.957125,15.378 780.003337,15.95 L780.2575,18.942 C780.303711,19.47 780.765826,19.888 781.320364,19.888 L782.059747,19.888 C782.198382,21.076 783.261246,22 784.555167,22 C785.849089,22 786.888847,21.076 787.050587,19.888 L795.022067,19.888 C795.160701,21.076 796.223565,22 797.517487,22 C798.811408,22 799.851166,21.076 800.012906,19.888 L800.659867,19.888 C801.214405,19.888 801.67652,19.492 801.745837,18.964 L802,16.478 C801.976894,15.928 801.560991,15.422 800.983347,15.356 Z M784,20 C783.438596,20 783,19.5438596 783,19 C783,18.4561404 783.45614,18 784,18 C784.54386,18 785,18.4561404 785,19 C785,19.5438596 784.561404,20 784,20 Z M788.974522,15 L785,15 L786.299363,13.3396226 C786.477707,13.1320755 786.783439,13 787.11465,13 L789,13 L788.974522,15 Z M789,15 L789.024876,13 L790.965174,13 C791.338308,13 791.711443,13.1308411 791.985075,13.3364486 L794,15 L789,15 Z M798,20 C797.438596,20 797,19.5438596 797,19 C797,18.4561404 797.45614,18 798,18 C798.561404,18 799,18.4561404 799,19 C799,19.5438596 798.561404,20 798,20 Z" id="Local-Transport-Icon"></path>
            </g>
        </g>
    </g>
</svg>