<?xml version="1.0" encoding="UTF-8"?>
<svg width="40px" height="48px" viewBox="0 0 40 48" version="1.1" xmlns="http://www.w3.org/2000/svg" xmlns:xlink="http://www.w3.org/1999/xlink">
    <!-- Generator: sketchtool 51.2 (57519) - http://www.bohemiancoding.com/sketch -->
    <title>3147D291-3BB7-48ED-993F-3C98FC12E51C</title>
    <desc>Created with sketchtool.</desc>
    <defs></defs>
    <g id="Page-1" stroke="none" stroke-width="1" fill="none" fill-rule="evenodd">
        <g id="Landing-Page" transform="translate(-965.000000, -1616.000000)" fill="#2789F0" fill-rule="nonzero">
            <g id="Group-9" transform="translate(965.000000, 1616.000000)">
                <ellipse id="Oval" cx="14.1192" cy="4.51882845" rx="4.5" ry="4.51882845"></ellipse>
                <path d="M28.5932,9.99504603 C29.4244,9.42005021 30.056,8.54821757 30.3028,7.48317992 C30.8286,5.21533054 29.4238,2.94848536 27.1656,2.42008368 C24.907,1.89208368 22.6496,3.30276151 22.1234,5.57081172 C21.7692,7.0979749 22.2928,8.62232636 23.3608,9.61787448 C23.879,10.100887 24.5232,10.4611883 25.261,10.6337071 C26.459,10.9138745 27.654,10.6445523 28.5932,9.99504603 Z" id="Shape"></path>
                <path d="M0.8,45.0910795 L6.6,45.0910795 C7.0418,45.0910795 7.4,44.7313808 7.4,44.2877322 L7.4,32.0366862 C7.4,31.5930377 7.0418,31.2333389 6.6,31.2333389 L4.35,31.2333389 L4.35,29.8700586 C4.9074,29.6013389 5.2826,29.0193138 5.2572,28.3589623 C5.238,27.8657071 5.2292,27.3879163 5.2292,26.9241841 C5.2354,20.7659247 6.7876,17.4430795 8.1834,15.6365523 C8.2258,15.5821255 8.2676,15.5329205 8.3098,15.4813054 C8.4448,15.3152134 8.5786,15.1587615 8.7096,15.0187782 L8.7096,21.8673138 L8.7096,25.6709623 L8.7096,26.8526862 L8.7096,45.3529707 C8.7096,46.7242845 9.817,47.8359163 11.1822,47.8359163 C12.5478,47.8359163 13.6552,46.7242845 13.6552,45.3529707 L13.6552,27.6245021 L13.6552,27.2228285 L14.5822,27.2228285 L14.5822,27.6245021 L14.5822,45.3529707 C14.5822,46.7242845 15.6896,47.8359163 17.0548,47.8359163 C18.4204,47.8359163 19.5278,46.7242845 19.5278,45.3529707 L19.5278,34.9781423 L17.546,34.9781423 L17.0608,34.9781423 L17.1534,34.4999498 L18.4978,27.5526025 L18.5854,27.1001172 L19.528,22.2284184 L19.528,21.8673138 L19.528,18.267113 L19.528,14.6293556 L19.528,13.3221088 C19.6518,13.2970042 19.7858,13.2710962 19.9276,13.2447866 C20.3618,13.1640502 20.8762,13.0798996 21.4476,13.006795 C21.136,13.2345439 20.641,13.6241674 19.9276,14.264636 L19.9276,17.8638326 C20.3154,17.4758159 20.6636,17.13841 20.9776,16.8417741 L20.3116,20.2845188 L19.9278,22.2681841 L19.5282,24.33359 L19.0532,26.7886192 L18.9408,27.3690377 L17.5462,34.5766695 L19.528,34.5766695 L21.8796,34.5766695 L21.8796,34.9783431 L21.8796,45.827749 C21.8796,46.9369707 22.775,47.8361172 23.8796,47.8361172 C24.9838,47.8361172 25.8796,46.9369707 25.8796,45.827749 L25.8796,34.9783431 L25.8796,34.5766695 L26.5462,34.5766695 L26.5462,34.9783431 L26.5462,45.827749 C26.5462,46.9369707 27.4416,47.8361172 28.5462,47.8361172 C29.6504,47.8361172 30.5462,46.9369707 30.5462,45.827749 L30.5462,34.9783431 L30.5462,34.5766695 L33.3186,34.5766695 L33.3186,33.4427448 C33.3186,32.8091046 33.8084,32.2891381 34.4278,32.2423431 L32.1214,20.3218745 L31.5268,17.2488703 C32.4136,18.8079665 33.5108,21.4807029 34.5772,25.9139749 C34.5774,25.9145774 34.5776,25.9151799 34.5778,25.9157824 C34.9346,27.3979582 35.2894,29.0763515 35.6336,30.9762678 C35.6564,31.1031967 35.7012,31.2198828 35.7562,31.3295397 C35.8516,31.5189289 35.9888,31.6781925 36.156,31.7988954 L36.156,32.6395983 L34.9122,32.6395983 L34.5184,32.6395983 C34.5138,32.6395983 34.5094,32.6408033 34.5048,32.6410042 C34.0694,32.6484351 33.7184,33.0041172 33.7184,33.4429456 L33.7184,34.5768703 L33.7184,34.9785439 L33.7184,43.083113 C33.7184,43.5267615 34.0766,43.8864603 34.5184,43.8864603 L39.0934,43.8864603 C39.5352,43.8864603 39.8934,43.5267615 39.8934,43.083113 L39.8934,33.4429456 C39.8934,32.9992971 39.5352,32.6395983 39.0934,32.6395983 L37.4558,32.6395983 L37.4558,31.9272301 C37.6086,31.8567364 37.7434,31.7583264 37.8558,31.6390293 C38.1302,31.3474142 38.2684,30.9340921 38.1916,30.5089205 C37.839,28.5668285 37.4752,26.841841 37.1056,25.3066444 C37.105,25.304636 37.105,25.3024268 37.1044,25.3004184 C36.1584,21.3873138 35.1842,18.7115649 34.2606,16.8526192 C34.1668,16.8660753 34.072,16.8741088 33.9756,16.8741088 C33.355,16.8741088 32.7806,16.5923347 32.3988,16.1016904 C32.014,15.6088368 31.565,15.1659916 31.0384,14.727364 C30.5978,14.3600335 30.1022,13.9955146 29.5398,13.6083013 C30.0436,13.7998996 30.5164,14.0288536 30.9558,14.2993808 C31.6264,14.7121004 32.2194,15.2206192 32.7136,15.8544603 C33.029,16.2599498 33.5,16.4718326 33.9756,16.4718326 C34.0046,16.4718326 34.0332,16.46641 34.062,16.4648033 C34.3778,16.4477322 34.6914,16.3416904 34.9596,16.1312134 C35.6556,15.5845356 35.779,14.5749289 35.2352,13.8760167 C33.8648,12.113272 32.0244,11.031364 30.1398,10.4101757 C29.846,10.3131715 29.5504,10.2298243 29.2542,10.1529038 C29.207,10.1406527 29.1596,10.1298075 29.1124,10.1179582 C28.317,10.7664603 27.3068,11.1466444 26.216,11.1466444 C25.8658,11.1466444 25.5134,11.1060753 25.17,11.0253389 C24.2534,10.8112469 23.4442,10.3304435 22.8232,9.64739749 C21.1808,9.753841 19.7726,9.9916318 18.8378,10.183431 C18.4564,10.2617573 18.1546,10.332251 17.9472,10.3832636 L10.2554,10.3832636 C10.033,10.3832636 9.822,10.4312636 9.631,10.5162176 C9.44,10.5845021 9.0406,10.7489874 8.5166,11.0641004 C7.7366,11.5332552 6.688,12.3355983 5.6592,13.661523 C3.7632,16.0974728 2.023,20.2300921 2.0292,26.9245858 C2.0292,27.4284854 2.0386,27.9476485 2.0598,28.4844854 C2.0846,29.1327866 2.4892,29.676251 3.05,29.9080167 L3.05,31.2335397 L0.8,31.2335397 C0.3582,31.2335397 0,31.5932385 0,32.036887 L0,44.2879331 C0,44.7313808 0.3582,45.0910795 0.8,45.0910795 Z M29.5968,15.1206025 C29.5848,15.11759 29.573,15.1145774 29.5608,15.1111632 C29.573,15.1145774 29.585,15.11759 29.5968,15.1206025 Z M29.3682,15.0396653 C29.3376,15.0254059 29.3066,15.0081339 29.2758,14.9906611 C29.3066,15.0081339 29.3376,15.0254059 29.3682,15.0396653 Z M29.2564,14.9802176 C29.251,14.9770042 29.2454,14.974795 29.24,14.9715816 C29.2456,14.9749958 29.251,14.9770042 29.2564,14.9802176 Z M29.2226,14.9601339 C29.1916,14.9406527 29.1608,14.9175565 29.1302,14.8942594 C29.161,14.9175565 29.1916,14.9406527 29.2226,14.9601339 Z" id="Shape"></path>
            </g>
        </g>
    </g>
</svg>