<svg xmlns="http://www.w3.org/2000/svg" width="33" height="37" viewBox="0 0 33 37">
    <g fill="#2789F0" fill-rule="nonzero">
        <path d="M0 4.81v27.38C0 34.856 2.227 37 5 37h1V0H5C2.273 0 0 2.143 0 4.81zM28.415 0H8v37h20.242C30.881 37 33 34.857 33 32.19V4.591C32.957 2.056 30.924 0 28.415 0zM20 9c2.213 0 4 1.82 4 4.021A3.985 3.985 0 0 1 20 17c-2.213-.042-4-1.778-4-4.021C16 10.778 17.83 9 20 9zm8 18.141c0 .497-.355.859-.843.859H13.848c-.488 0-.842-.362-.842-.859v-1.265c-.045-.723.177-1.446.576-2.079 1.509-2.35 4.126-3.841 6.92-3.796 2.796-.045 5.413 1.446 6.921 3.796.355.633.577 1.31.577 2.079v1.265z"/>
    </g>
</svg>
