<?xml version="1.0" encoding="UTF-8"?>
<svg width="33px" height="32px" viewBox="0 0 33 32" version="1.1" xmlns="http://www.w3.org/2000/svg" xmlns:xlink="http://www.w3.org/1999/xlink">
    <!-- Generator: sketchtool 51.2 (57519) - http://www.bohemiancoding.com/sketch -->
    <title>74522290-C7B5-428F-8CAD-22726A8C8B7F</title>
    <desc>Created with sketchtool.</desc>
    <defs></defs>
    <g id="Page-1" stroke="none" stroke-width="1" fill="none" fill-rule="evenodd">
        <g id="Assets" transform="translate(-1397.000000, -74.000000)">
            <g id="Group-8" transform="translate(1397.000000, 74.000000)">
                <rect id="Contact-Background-Copy-3" fill="#2789F0" x="0" y="0" width="33" height="32" rx="4"></rect>
                <path d="M14,18.7043089 L12.9683791,20.4512307 L11.8108344,21.0803983 C11.4528877,21.2742454 11.1839687,21.6138957 11.0532723,22.0379363 C10.9200059,22.4594702 10.942217,22.9171416 11.1123794,23.3215468 C11.1345904,23.3750218 11.1617577,23.4226481 11.1865386,23.4734076 L10.0266076,25.4421674 C9.79715452,25.8325772 9.39974185,26.0431353 8.98746062,25.9925846 C8.80977219,25.9702337 8.63942625,25.9000477 8.48890505,25.7876665 C7.98300699,25.3974656 7.84717079,24.6137216 8.18786266,24.0380291 L12.3365572,17 L12.3391271,17.0029244 L12.3464696,17.0112799 L14,18.7043089 Z" id="Shape" fill="#FFFFFF" fill-rule="nonzero"></path>
                <path d="M12.4900902,15.6240865 C12.578872,16.1665466 12.2239447,16.6758621 11.699652,16.7672671 C11.6458631,16.7755018 11.5920741,16.7810602 11.5382851,16.7810602 C11.5328862,16.7810602 11.5274873,16.7781781 11.5194889,16.7781781 C11.4952939,16.7781781 11.4736983,16.7752959 11.4495033,16.7726197 C11.4119109,16.7672671 11.3769181,16.764385 11.3419253,16.7561503 C11.3177302,16.7505919 11.2935352,16.7450335 11.2693401,16.7365929 C11.2371467,16.7254761 11.2021539,16.7145651 11.1697605,16.700772 C11.1483649,16.6923314 11.1267693,16.6814205 11.1025743,16.6674215 C11.0729803,16.6536284 11.0433864,16.6342769 11.0137925,16.6149254 C10.9949963,16.6011323 10.9734007,16.5873392 10.9546046,16.5733402 C10.9278101,16.5513124 10.9008156,16.5261966 10.8766205,16.5012867 C10.8578244,16.4846114 10.8416277,16.468142 10.825631,16.4487905 C10.8014359,16.4212043 10.7798403,16.390736 10.7584447,16.3602676 C10.7450475,16.3409161 10.7316502,16.3242409 10.718053,16.3022131 C10.6966574,16.2661863 10.6804607,16.2301595 10.664264,16.1914565 C10.6560657,16.172105 10.6454679,16.1554297 10.6372695,16.1360782 C10.6184734,16.0778178 10.5996772,16.0142048 10.5888794,15.9505919 L10.0107978,11.1538857 C10.0107978,11.1454452 10.0107978,11.1400926 10.0107978,11.1345342 C10.0053989,11.0985075 10.0053989,11.0624807 10.0027994,11.0266598 C10.0027994,10.9935152 10,10.9630468 10,10.9299022 C10.0027994,10.9243438 10,10.9161091 10,10.9105507 C10.0027994,10.8856408 10.0107978,10.8607308 10.0133973,10.8358209 C10.0187962,10.8026763 10.024195,10.7695317 10.0321934,10.7361812 C10.0401918,10.7030365 10.053589,10.6725682 10.0643868,10.6420998 C10.0751846,10.6116315 10.083183,10.5840453 10.0967802,10.5591354 C10.1101774,10.5257849 10.1289736,10.4953165 10.1477697,10.465054 C10.1639664,10.4428204 10.1773637,10.4179104 10.1935604,10.3958827 C10.2123565,10.3682964 10.2365516,10.3433865 10.2607466,10.3155944 C10.2795428,10.2962429 10.2983389,10.2740093 10.3171351,10.2546577 C10.3441295,10.23263 10.3709241,10.2103963 10.3979185,10.1910448 C10.4193142,10.1743695 10.4409097,10.1576943 10.4677042,10.1412249 C10.4972982,10.1218734 10.5296916,10.1080803 10.561885,10.091405 C10.58608,10.0802882 10.6102751,10.0693773 10.6344701,10.0609367 C10.6720624,10.0442615 10.7096547,10.0360268 10.747247,10.0277921 C10.7660432,10.0222337 10.7822399,10.0166752 10.8036355,10.0111168 C10.8090344,10.0111168 10.8144333,10.0111168 10.8198322,10.0111168 C10.854825,10.0055584 10.8924173,10.0055584 10.9274101,10.0026763 C10.9516052,10.0026763 10.9758002,10 10.9999953,10 C11.0053942,10 11.0107931,10.0026763 11.0187914,10.0026763 C11.0215909,10.0026763 11.0269897,10.0026763 11.0295892,10.0026763 C11.0323886,10.0026763 11.0323886,10.0026763 11.0349881,10.0026763 C11.0377875,10.0026763 11.0377875,10.0026763 11.040387,10.0026763 C11.040387,10.0026763 15.2183317,10.2435409 15.5274684,10.3431806 C15.7264277,10.4067936 18.9445688,12.0039115 19.0629446,12.7790015 L19.9849558,15.2811117 L22.4722466,13.3128152 C22.5234361,13.2767885 22.5744257,13.2463201 22.6282147,13.2214102 C22.6442114,13.2129696 22.6604081,13.2076171 22.6764048,13.2020587 C22.7139971,13.1853834 22.7545888,13.1715903 22.7919812,13.1604735 C22.8109773,13.1549151 22.8295735,13.1520329 22.8483696,13.1466804 C22.8887613,13.1384457 22.9317525,13.1328873 22.9721443,13.1300051 C22.988141,13.1300051 23.0043377,13.1273289 23.0179349,13.1273289 C23.0259333,13.1273289 23.0287327,13.1273289 23.0367311,13.1273289 C23.0529277,13.1273289 23.066325,13.1300051 23.0825217,13.1328873 C23.1309118,13.1328873 23.1793019,13.1384457 23.2278919,13.1495625 C23.252087,13.1551209 23.276282,13.1606794 23.3002771,13.1689141 C23.3434683,13.1800309 23.3864595,13.1965003 23.4294507,13.2160576 C23.4508463,13.2271745 23.4752413,13.2380854 23.4966369,13.2492023 C23.5398281,13.2741122 23.5774204,13.3016984 23.6176121,13.3321668 C23.6338088,13.3459599 23.652605,13.3570767 23.6714011,13.3737519 C23.7253901,13.4208955 23.7737802,13.4762738 23.8193708,13.5370046 C24.1285075,13.9827072 24.0317274,14.6025733 23.598816,14.9237262 L20.0903343,17.5835306 C20.0849354,17.589089 20.0795365,17.589089 20.0741376,17.5946475 C20.0473431,17.6142048 20.0149497,17.6306742 19.9855557,17.6473495 C19.9559618,17.6640247 19.9291673,17.6804941 19.9021728,17.6916109 C19.8941744,17.6944931 19.8887755,17.7000515 19.8833766,17.7027277 C19.8591816,17.7111683 19.837586,17.7138446 19.813391,17.7222851 C19.783797,17.733402 19.7514036,17.7443129 19.7192102,17.7498713 C19.6870168,17.7583119 19.6546235,17.7583119 19.62243,17.7636644 C19.5930361,17.7665466 19.5632422,17.7692229 19.5364476,17.7692229 C19.5014548,17.7692229 19.466462,17.7663407 19.4316691,17.7636644 C19.4046746,17.7607823 19.3776802,17.7583119 19.3510856,17.7525476 C19.3160928,17.7471951 19.2836994,17.7360782 19.251506,17.7247555 C19.2247115,17.7165208 19.197717,17.7111683 19.1735219,17.7000515 C19.1413285,17.6862584 19.1115346,17.6695831 19.0821407,17.6555841 C19.0579456,17.641791 19.0309511,17.6279979 19.0067561,17.6113227 C18.9773621,17.5919712 18.9503676,17.5697375 18.9235731,17.5475039 C18.9019775,17.5310345 18.880382,17.5143592 18.8615858,17.4950077 C18.8345913,17.4672156 18.8077968,17.434071 18.7836018,17.4036027 C18.772804,17.3900154 18.7566073,17.3760165 18.7460095,17.3593412 C18.74321,17.3539887 18.7406106,17.3482244 18.7380111,17.3428718 C18.7166155,17.3150798 18.7004188,17.2819352 18.6840222,17.2485847 C18.6680254,17.2209985 18.6546282,17.1932064 18.641031,17.1656202 C18.6382315,17.1573855 18.6356321,17.1520329 18.6330326,17.1462687 L17.8317966,15.2806999 C17.8317966,15.2806999 17.1381386,16.5733402 16.9339804,16.9360782 L19.3130934,19.1448276 C19.5522444,19.3663407 19.6948152,19.6734946 19.7110119,20.0028821 C19.7190103,20.1856922 19.6868169,20.3656202 19.6222301,20.5288729 C19.6170312,20.5455481 19.6170312,20.5593412 19.6114323,20.5731343 C19.5038543,20.8860525 19.2832995,21.1378281 18.9931589,21.279053 L13.6942437,23.8810087 C13.5302773,23.961297 13.355513,24 13.1753499,24 C12.7128446,24 12.2853321,23.7231086 12.0865728,23.2940813 C12.075775,23.2720535 12.0731756,23.2469377 12.0623778,23.2249099 C11.9522003,22.942666 11.9386031,22.63263 12.0381827,22.3448276 C12.1457607,22.0319094 12.3661156,21.7801338 12.6564562,21.6389089 L13.3043235,21.3206382 L16.4122872,19.7955739 L15.0949569,18.5747813 L13.3393164,16.9445188 C13.3205202,16.9251673 13.3071229,16.9058157 13.2909263,16.8864642 C12.5622754,16.0504375 13.0999654,14.6554812 13.2425362,14.292949 L14.0409727,12.2447761 L12.0621778,12.0786413 L12.4900902,15.6240865 Z" id="Shape" fill="#FFFFFF" fill-rule="nonzero"></path>
                <path d="M19.8563274,10.4327627 C19.4433554,11.7112595 18.2799642,12.3313196 17.2541016,11.8218035 C16.23075,11.3057706 15.7322089,9.85204475 16.1451809,8.57016891 C16.5554487,7.28829308 17.7188399,6.66533666 18.7447026,7.18136952 C19.7680542,7.69716102 20.2665952,9.15112827 19.8563274,10.4327627 Z" id="Shape" fill="#FFFFFF" fill-rule="nonzero"></path>
            </g>
        </g>
    </g>
</svg>