<svg xmlns="http://www.w3.org/2000/svg" width="29" height="36" viewBox="0 0 29 36">
    <g fill="#2789F0" fill-rule="nonzero">
        <path d="M12 23.03l-2.063 3.106-2.315 1.118a2.945 2.945 0 0 0-1.515 1.702 2.978 2.978 0 0 0 .118 2.282c.044.095.099.18.148.27l-2.32 3.5a2.196 2.196 0 0 1-2.078.979 2.255 2.255 0 0 1-.997-.364 2.263 2.263 0 0 1-.602-3.11L8.673 20l.005.005.015.015L12 23.03z"/>
        <path d="M7.624 16.445c.165 1.007-.494 1.953-1.468 2.123-.1.015-.2.025-.3.025-.01 0-.02-.005-.034-.005-.045 0-.085-.005-.13-.01-.07-.01-.135-.016-.2-.03-.045-.011-.09-.022-.135-.037-.06-.02-.124-.041-.185-.067a.932.932 0 0 1-.124-.062c-.055-.025-.11-.061-.165-.097-.035-.026-.075-.051-.11-.077a1.8 1.8 0 0 1-.145-.134.857.857 0 0 1-.095-.098 1.926 1.926 0 0 1-.124-.164c-.025-.036-.05-.067-.075-.108a1.607 1.607 0 0 1-.1-.206c-.016-.036-.035-.066-.05-.102a2.505 2.505 0 0 1-.09-.345L3.02 8.143v-.036c-.01-.067-.01-.134-.015-.2 0-.062-.005-.118-.005-.18.005-.01 0-.026 0-.036.005-.046.02-.092.025-.139.01-.061.02-.123.035-.185.015-.061.04-.118.06-.175.02-.056.034-.107.06-.154.025-.062.06-.118.094-.174.03-.042.055-.088.085-.129.035-.051.08-.097.125-.149.035-.036.07-.077.105-.113.05-.041.1-.082.15-.118.04-.031.08-.062.13-.093.055-.036.115-.061.175-.092.044-.02.09-.041.134-.057.07-.03.14-.046.21-.061.035-.01.065-.021.104-.031h.03c.066-.01.135-.01.2-.016.045 0 .09-.005.135-.005.01 0 .02.005.035.005h.04s7.76.447 8.333.632c.37.118 6.346 3.085 6.566 4.524l1.712 4.647 4.62-3.656c.095-.067.19-.123.29-.17.03-.015.06-.025.089-.035a1.81 1.81 0 0 1 .215-.078c.035-.01.07-.015.104-.025.075-.015.155-.026.23-.031.03 0 .06-.005.085-.005h.035c.03 0 .055.005.085.01a1.319 1.319 0 0 1 .404.067c.08.02.16.051.24.088.04.02.085.04.125.061.08.046.15.098.225.154.03.026.065.047.1.078.1.087.19.19.275.303.574.827.394 1.979-.41 2.575l-6.516 4.94c-.01.01-.02.01-.03.02-.05.037-.11.067-.164.098-.055.031-.105.062-.155.082-.015.006-.025.016-.035.021-.045.016-.085.02-.13.036a.985.985 0 0 1-.175.052c-.06.015-.12.015-.18.025-.054.006-.11.01-.16.01-.064 0-.13-.005-.194-.01-.05-.005-.1-.01-.15-.02a1.02 1.02 0 0 1-.185-.052c-.05-.015-.1-.025-.144-.046-.06-.026-.116-.056-.17-.082-.045-.026-.095-.052-.14-.083a1.76 1.76 0 0 1-.155-.118 1.02 1.02 0 0 1-.115-.098c-.05-.051-.1-.113-.145-.17-.02-.025-.05-.05-.07-.082l-.014-.03c-.04-.052-.07-.113-.1-.175-.03-.052-.055-.103-.08-.154l-.015-.036-1.488-3.465s-1.288 2.4-1.668 3.074l4.419 4.102a2.322 2.322 0 0 1 .574 2.57c-.01.032-.01.057-.02.083-.2.581-.61 1.049-1.148 1.31L9.86 31.78c-.305.15-.63.221-.964.221a2.246 2.246 0 0 1-2.022-1.311c-.02-.04-.025-.088-.045-.128a2.36 2.36 0 0 1-.045-1.635c.2-.581.61-1.049 1.148-1.31l1.204-.592 5.772-2.832-2.447-2.267-3.26-3.028c-.035-.036-.06-.072-.09-.108-1.353-1.552-.355-4.143-.09-4.816l1.483-3.804L6.83 9.86l.794 6.585zM22.713 5.492a4.014 4.014 0 0 1-5.205 2.223 4 4 0 0 1-2.218-5.203A3.992 3.992 0 0 1 20.49.29a4.006 4.006 0 0 1 2.223 5.202z"/>
    </g>
</svg>
