<?xml version="1.0" encoding="UTF-8"?>
<svg width="19px" height="20px" viewBox="0 0 19 20" version="1.1" xmlns="http://www.w3.org/2000/svg" xmlns:xlink="http://www.w3.org/1999/xlink">
    <!-- Generator: sketchtool 51.2 (57519) - http://www.bohemiancoding.com/sketch -->
    <title>79C9F9B1-7E0C-432A-8021-1AA4D0FED1A3</title>
    <desc>Created with sketchtool.</desc>
    <defs></defs>
    <g id="Page-1" stroke="none" stroke-width="1" fill="none" fill-rule="evenodd">
        <g id="Landing-Page" transform="translate(-279.000000, -610.000000)" fill="#8F8F8F" fill-rule="nonzero">
            <g id="Group-7" transform="translate(255.000000, 600.000000)">
                <g id="Group-4" transform="translate(24.000000, 10.000000)">
                    <path d="M18.6244955,17.5638074 C18.6244955,17.5638074 16.951262,15.8041376 13.6047952,12.2847979 C14.4726873,10.9773796 14.9183616,9.4232787 14.9183616,7.84450949 C14.9183616,3.52756244 11.5640759,0 7.4591808,0 C3.35428571,8.76392961e-16 0,3.52756244 0,7.84450949 C0,12.1614565 3.35428571,15.689019 7.4591808,15.689019 C8.96039958,15.689019 10.4381618,15.1956536 11.6813586,14.3075959 L16.6776024,19.5619372 C17.1936463,20.1293074 18.0615384,20.1539756 18.6010389,19.5866055 C19.1170829,19.0439035 19.1405394,18.1311776 18.6244955,17.5638074 Z M7,12 C4.24137931,12 2,9.75862069 2,7 C2,4.24137931 4.24137931,2 7,2 C9.75862069,2 12,4.24137931 12,7 C12,9.75862069 9.75862069,12 7,12 Z" id="Shape"></path>
                </g>
            </g>
        </g>
    </g>
</svg>