<?xml version="1.0" encoding="UTF-8" standalone="no"?>
<!-- Generator: Adobe Illustrator 16.0.0, SVG Export Plug-In . SVG Version: 6.00 Build 0)  -->

<svg
   xmlns:dc="http://purl.org/dc/elements/1.1/"
   xmlns:cc="http://creativecommons.org/ns#"
   xmlns:rdf="http://www.w3.org/1999/02/22-rdf-syntax-ns#"
   xmlns:svg="http://www.w3.org/2000/svg"
   xmlns="http://www.w3.org/2000/svg"
   xmlns:sodipodi="http://sodipodi.sourceforge.net/DTD/sodipodi-0.dtd"
   xmlns:inkscape="http://www.inkscape.org/namespaces/inkscape"
   version="1.1"
   id="Layer_1"
   x="0px"
   y="0px"
   width="1000"
   height="592.61102"
   viewBox="0 0 1000 592.61106"
   enable-background="new 0 0 1000 553.569"
   xml:space="preserve"
   sodipodi:docname="TripAdvisor_Owl_Hand.svg"
   inkscape:version="0.92.2 (5c3e80d, 2017-08-06)"><metadata
     id="metadata31520"><rdf:RDF><cc:Work
         rdf:about=""><dc:format>image/svg+xml</dc:format><dc:type
           rdf:resource="http://purl.org/dc/dcmitype/StillImage" /><dc:title></dc:title></cc:Work></rdf:RDF></metadata><defs
     id="defs31518" /><sodipodi:namedview
     pagecolor="#ffffff"
     bordercolor="#666666"
     borderopacity="1"
     objecttolerance="10"
     gridtolerance="10"
     guidetolerance="10"
     inkscape:pageopacity="0"
     inkscape:pageshadow="2"
     inkscape:window-width="1366"
     inkscape:window-height="705"
     id="namedview31516"
     showgrid="false"
     inkscape:zoom="0.568"
     inkscape:cx="576.353"
     inkscape:cy="339.55985"
     inkscape:window-x="-8"
     inkscape:window-y="-8"
     inkscape:window-maximized="1"
     inkscape:current-layer="Layer_1" /><g
     id="g31513"
     transform="matrix(1.0705284,0,0,1.0705284,0,3.2627344e-4)"><path
       d="m 161.247,109.154 c 87.598,-11.287 336.175,-19.086 268.08,340.114 l 77.205,-6.291 C 472.738,221.57 543.503,108.675 764.809,97.867 397.776,-105.414 188.789,105.601 161.247,109.154"
       id="path31495"
       inkscape:connector-curvature="0"
       style="fill:#fee090" /><path
       d="M 502.926,392.37 C 543.08,501.296 664.143,557.022 773.033,516.847 881.945,476.576 937.756,355.598 897.467,246.666 857.207,137.687 736.276,82.041 627.309,122.231 518.342,162.452 462.64,283.416 502.926,392.37"
       id="path31497"
       inkscape:connector-curvature="0"
       style="fill:#ffffff" /><path
       d="m 444.342,318.68 c 0,116.097 -94.195,210.228 -210.298,210.228 -116.181,0 -210.322,-94.131 -210.322,-210.228 0,-116.157 94.142,-210.313 210.322,-210.313 116.102,-0.001 210.298,94.156 210.298,210.313"
       id="path31499"
       inkscape:connector-curvature="0"
       style="fill:#ffffff" /><path
       d="m 269.896,316.58 c 0,21.451 -17.445,38.898 -38.844,38.898 -21.533,0 -38.921,-17.447 -38.921,-38.898 0,-21.479 17.388,-38.843 38.921,-38.843 21.4,0 38.844,17.365 38.844,38.843"
       id="path31501"
       inkscape:connector-curvature="0"
       style="fill:#bb2535" /><path
       d="m 738.489,316.58 c 0,21.451 -17.334,38.898 -38.809,38.898 -21.508,0 -38.844,-17.447 -38.844,-38.898 0,-21.479 17.336,-38.843 38.844,-38.843 21.475,0 38.809,17.365 38.809,38.843"
       id="path31503"
       inkscape:connector-curvature="0"
       style="fill:#589441" /><path
       d="m 887.905,180.164 c 11.037,-46.779 46.004,-93.529 46.004,-93.529 L 777.845,86.543 C 690.297,29.974 583.946,0 466.06,0 343.868,0 233.485,30.75 146.45,87.609 L 0,87.758 c 0,0 34.542,46.161 45.79,92.643 -28.559,38.791 -45.656,86.53 -45.656,138.29 0,128.948 104.908,233.829 233.937,233.829 73.706,0 139.423,-34.301 182.328,-87.754 l 49.768,74.547 50.25,-75.154 c 22.549,28.723 51.664,51.975 85.834,67.738 56.791,26.207 120.373,28.74 178.982,7.082 120.992,-44.777 183.076,-179.589 138.381,-300.497 -7.905,-21.401 -18.75,-40.874 -31.709,-58.318 M 692.735,85.888 c -24.523,0.747 -49.322,5.221 -73.572,14.171 -58.67,21.64 -105.34,64.836 -131.49,121.592 -11.784,25.645 -18.462,52.69 -20.6,79.998 C 458.418,182.153 359.789,87.396 238.748,84.993 305.719,56.369 382.658,40.78 466.06,40.78 550.026,40.779 625.811,55.94 692.735,85.888 M 234.07,505.304 c -102.955,0 -186.705,-83.764 -186.705,-186.612 0,-102.973 83.75,-186.735 186.705,-186.735 102.904,0 186.654,83.762 186.654,186.735 0.001,102.848 -83.749,186.612 -186.654,186.612 m 530.786,-10.602 c -46.746,17.256 -97.502,15.246 -142.863,-5.668 -45.254,-20.879 -79.691,-58.105 -96.895,-104.827 l -0.023,-0.031 c -17.316,-46.775 -15.307,-97.488 5.5,-142.767 20.867,-45.299 58.158,-79.772 104.906,-97.029 96.598,-35.65 204.179,13.892 239.816,110.492 35.694,96.48 -13.89,204.096 -110.441,239.83"
       id="path31505"
       inkscape:connector-curvature="0"
       style="fill:#010101" /><path
       d="m 231.159,201.108 c -63.739,0 -115.621,51.813 -115.621,115.472 0,63.701 51.882,115.538 115.621,115.538 63.606,0 115.354,-51.837 115.354,-115.538 0,-63.659 -51.748,-115.472 -115.354,-115.472 m 0,191.221 c -41.861,0 -75.841,-33.985 -75.841,-75.749 0,-41.751 33.979,-75.695 75.841,-75.695 41.675,0 75.577,33.943 75.577,75.695 0,41.764 -33.902,75.749 -75.577,75.749"
       id="path31507"
       inkscape:connector-curvature="0"
       style="fill:#010101" /><path
       d="m 699.705,201.108 c -63.713,0 -115.544,51.813 -115.544,115.472 0,63.701 51.831,115.538 115.544,115.538 63.63,0 115.431,-51.837 115.431,-115.538 -10e-4,-63.659 -51.802,-115.472 -115.431,-115.472 m 0,191.221 c -41.782,0 -75.761,-33.985 -75.761,-75.749 0,-41.751 33.979,-75.695 75.761,-75.695 41.698,0 75.653,33.943 75.653,75.695 0,41.764 -33.955,75.749 -75.653,75.749"
       id="path31509"
       inkscape:connector-curvature="0"
       style="fill:#010101" /></g></svg>