<?xml version="1.0" encoding="UTF-8"?>
<svg width="37px" height="46px" viewBox="0 0 37 46" version="1.1" xmlns="http://www.w3.org/2000/svg" xmlns:xlink="http://www.w3.org/1999/xlink">
    <!-- Generator: sketchtool 51.2 (57519) - http://www.bohemiancoding.com/sketch -->
    <title>D332098C-992C-43AE-A8F8-C89DE1EE81CE</title>
    <desc>Created with sketchtool.</desc>
    <defs></defs>
    <g id="Page-1" stroke="none" stroke-width="1" fill="none" fill-rule="evenodd">
        <g id="Landing-Page" transform="translate(-259.000000, -1618.000000)" fill="#2789F0" fill-rule="nonzero">
            <g id="Group-13" transform="translate(259.000000, 1617.000000)">
                <ellipse id="Oval" transform="translate(5.528296, 5.499889) rotate(-13.109285) translate(-5.528296, -5.499889) " cx="5.52829582" cy="5.4998888" rx="4.59824021" ry="4.49861881"></ellipse>
                <path d="M7.30637569,14.004 C7.23441989,13.3828 7.46664088,12.7938 7.88672376,12.3786 C8.20337017,12.0656 8.62651934,11.851 9.1081326,11.7974 C9.18622099,11.7888 9.26349171,11.7848 9.34035359,11.7848 C10.3794199,11.7848 11.2522928,12.5478 11.3696298,13.5596 C11.379442,13.6452 11.410105,13.957 11.410105,14.4294 C11.4099006,14.5206 11.4033591,14.6106 11.4009061,14.7014 C11.3522541,16.5696 10.8814751,18.3696 10.0229116,19.9228 C9.56766851,20.7582 8.73751934,21.9488 7.3311105,23.0248 C7.34317127,23.7448 7.31332597,24.4562 7.22522099,25.1458 C5.15628729,28.2 1.8119779,34.4862 1.06400552,43.9928 C0.955867403,45.3696 2.00842541,46.5716 3.41565193,46.6774 C3.48229282,46.6824 3.54852486,46.6848 3.61434807,46.6848 C4.93674033,46.6848 6.05634807,45.6878 6.15958011,44.3766 C6.42920994,40.9552 7.06945304,38.0292 7.84829282,35.5894 C8.06375138,36.4754 8.35034807,37.3814 8.72443646,38.295 C9.82585083,40.9964 11.7138729,43.7464 14.662221,46.115 C15.751779,46.9926 17.3617901,46.8394 18.2587845,45.7734 C19.155779,44.707 18.9991934,43.1318 17.9096354,42.2542 C15.6248343,40.4094 14.2852707,38.4194 13.4682044,36.4354 C12.6556354,34.4534 12.3864144,32.4598 12.3868232,30.708 C12.3862099,29.5646 12.5017072,28.5296 12.6452099,27.6904 C13.5029558,27.2026 14.208,26.319 14.5223978,24.7366 C14.856011,21.9324 14.8588729,19.8514 14.4665912,17.6836 C15.6326022,19.2328 16.6485691,21.2664 17.1273204,23.9568 C17.2646906,24.7358 17.9560387,25.285 18.7373315,25.2852 C18.7581823,25.2852 18.7792376,25.2834 18.8000884,25.2826 L20.9565138,30.2944 L20.2972597,30.5658 C19.4646575,30.9086 19.074011,31.8468 19.4243867,32.6614 L23.9052707,43.0756 C23.5935304,43.4782 23.4064862,43.978 23.4064862,44.522 C23.4064862,45.8474 24.5046298,46.922 25.8595249,46.922 C27.0144972,46.922 27.9805856,46.1396 28.2410166,45.0878 L35.8440055,41.9564 C36.6764033,41.6136 37.0670497,40.6756 36.7168785,39.861 L31.4822983,27.695 C31.1317182,26.8806 30.172989,26.4984 29.3405912,26.841 L22.1497127,29.8028 L19.9699834,24.737 C20.2825414,24.3864 20.4376961,23.9066 20.3504088,23.4124 C19.4685414,18.3788 16.882221,15.0476 14.5328232,13.0538 C13.3557735,12.0514 12.2404586,11.368 11.4033591,10.9294 C10.3172762,10.1606 9.05804972,9.9584 8.0568011,10.2024 C6.31187293,10.628 5.54448066,13.0104 6.13116575,15.0008 C6.28611602,15.7752 6.4739779,16.645 6.65509392,17.5676 C7.27612155,16.2136 7.3239558,14.849 7.32170718,14.4316 C7.32211602,14.196 7.31005525,14.0448 7.30637569,14.004 Z M24.6998508,44.91 C24.6573315,44.7882 24.6330055,44.6578 24.6330055,44.5218 C24.6330055,43.859 25.1822818,43.3218 25.8597293,43.3218 C26.5369724,43.3218 27.0860442,43.859 27.0860442,44.5218 C27.0860442,45.1844 26.536768,45.7218 25.8597293,45.7218 C25.7405525,45.7218 25.6256685,45.7044 25.5167127,45.6734 C25.1334254,45.5642 24.8284309,45.2774 24.6998508,44.91 Z" id="Shape"></path>
                <path d="M2.04358564,24.8518 C2.16664641,24.8518 2.29134254,24.8382 2.41644751,24.8096 C4.46616575,24.3532 6.08087845,23.5226 7.3178232,22.5186 C8.35832044,21.6738 9.13245856,20.7068 9.66333702,19.7322 C10.841,17.6022 10.9973812,15.5284 11.0014696,14.429 C11.0014696,14.4284 11.0014696,14.4278 11.0014696,14.427 C11.0014696,13.9518 10.9691713,13.6544 10.9634475,13.6042 C10.861442,12.726 10.0519392,12.0952 9.15433149,12.1946 C8.72607182,12.2422 8.35648066,12.4486 8.0968674,12.7458 C7.81251934,13.0712 7.66043094,13.5056 7.71358011,13.9646 L7.71398895,13.9688 C7.71807735,14.0144 7.7309558,14.1788 7.73075138,14.4288 C7.7350442,15.204 7.59276796,16.7738 6.79082873,18.202 C6.78735359,18.208 6.78346961,18.2142 6.77999448,18.2202 C5.9610884,19.6396 4.61069061,21.001 1.6731768,21.693 C0.793558011,21.8934 0.246939227,22.7542 0.452381215,23.6148 C0.62818232,24.3532 1.30072376,24.8518 2.04358564,24.8518 Z" id="Shape"></path>
            </g>
        </g>
    </g>
</svg>